<?xml version="1.0" encoding="iso-8859-1"?>
<!-- Generator: Adobe Illustrator 19.0.0, SVG Export Plug-In . SVG Version: 6.00 Build 0)  -->
<svg version="1.1" id="Capa_1" xmlns="http://www.w3.org/2000/svg" xmlns:xlink="http://www.w3.org/1999/xlink" x="0px" y="0px"
	 viewBox="0 0 384 384" style="enable-background:new 0 0 384 384;" xml:space="preserve">
<g>
	<g>
		<path d="M204.96,6.616C201.952,2.464,197.128,0,192,0s-9.952,2.464-12.96,6.616C166.448,24.008,56,178.544,56,248
			c0,74.992,61.008,136,136,136s136-61.008,136-136C328,178.544,217.552,24.008,204.96,6.616z M192,352
			c-57.344,0-104-46.656-104-104c0-44.368,66.264-149.568,104-204.24C229.736,98.432,296,203.632,296,248
			C296,305.344,249.344,352,192,352z"/>
	</g>
</g>
<g>
	<g>
		<path d="M192,296c-26.472,0-48-21.528-48-48c0-8.832-7.168-16-16-16c-8.832,0-16,7.168-16,16c0,44.112,35.888,80,80,80
			c8.832,0,16-7.168,16-16C208,303.168,200.832,296,192,296z"/>
	</g>
</g>
<g>
</g>
<g>
</g>
<g>
</g>
<g>
</g>
<g>
</g>
<g>
</g>
<g>
</g>
<g>
</g>
<g>
</g>
<g>
</g>
<g>
</g>
<g>
</g>
<g>
</g>
<g>
</g>
<g>
</g>
</svg>
