<svg width="20" height="20" viewBox="0 0 20 20" fill="none" xmlns="http://www.w3.org/2000/svg">
<path d="M19.3607 0.639347C18.5085 -0.212793 17.1272 -0.212793 16.275 0.639347L10 6.91439L3.72473 0.639105C2.8726 -0.213035 1.49124 -0.213035 0.639102 0.639105C-0.213034 1.49124 -0.213034 2.87261 0.639102 3.72475L6.91437 10L0.639102 16.2753C-0.213034 17.1275 -0.213034 18.5088 0.639102 19.361C1.06505 19.7869 1.6236 20 2.18192 20C2.74023 20 3.29854 19.7869 3.72473 19.361L10 13.0857L16.2753 19.361C16.7012 19.7869 17.2598 20 17.8181 20C18.3764 20 18.9347 19.7869 19.3609 19.361C20.213 18.5088 20.213 17.1275 19.3609 16.2753L13.0856 10L19.3609 3.72475C20.2128 2.87285 20.2128 1.49124 19.3607 0.639347Z" fill="black"/>
</svg>
