<svg width="44" height="39" viewBox="0 0 44 39" fill="none" xmlns="http://www.w3.org/2000/svg">
<path d="M16.5839 15.6757C18.2534 15.6757 19.6068 14.3209 19.6068 12.6498C19.6068 10.9787 18.2534 9.62393 16.5839 9.62393C14.9144 9.62393 13.561 10.9787 13.561 12.6498C13.561 14.3209 14.9144 15.6757 16.5839 15.6757Z" fill="#424242"/>
<path d="M41.3969 23.7866C39.9695 22.4418 38.1641 21.5593 36.1908 21.3071V5.92565C36.1908 4.28664 35.5191 2.81573 34.4695 1.72306C33.3779 0.630388 31.9084 0 30.271 0H5.91985C4.28244 0 2.81298 0.672414 1.72137 1.72306C0.629771 2.81573 0 4.28664 0 5.92565V25.2996V27.1067V31.0151C0 32.6541 0.671756 34.125 1.72137 35.2177C2.81298 36.3103 4.28244 36.9407 5.91985 36.9407H29.4733C31.0267 38.2015 32.958 39 35.0992 39C37.5763 39 39.8015 37.9914 41.3969 36.3944C42.9924 34.7974 44 32.57 44 30.0905C44 27.611 42.9924 25.3836 41.3969 23.7866ZM2.22519 5.92565C2.22519 4.91703 2.64504 3.99246 3.31679 3.32004C3.98855 2.64763 4.91221 2.22737 5.91985 2.22737H30.271C31.2786 2.22737 32.2023 2.64763 32.874 3.32004C33.5458 3.99246 33.9656 4.91703 33.9656 5.92565V19.0377L27.7519 12.8599C27.3321 12.4397 26.6183 12.3976 26.1565 12.8599L16.7939 22.2737L10.4542 15.8858C10.0344 15.4655 9.32061 15.4235 8.85878 15.8858L2.22519 22.6099V5.92565ZM5.87786 34.7554V34.7134C4.87023 34.7134 3.94656 34.2931 3.27481 33.6207C2.64504 32.9483 2.22519 32.0237 2.22519 31.0151V27.1067V25.7619L9.69847 18.2812L16.0382 24.6272C16.458 25.0474 17.1718 25.0474 17.6336 24.6272L26.9962 15.2134L33.126 21.3912C33 21.4332 32.874 21.4752 32.7481 21.5172C32.5802 21.5593 32.4122 21.6013 32.2023 21.6853C32.0343 21.7274 31.8664 21.8114 31.6985 21.8534C31.5725 21.8955 31.4885 21.9375 31.3626 22.0216C31.1947 22.1056 31.0687 22.1476 30.9427 22.2317C30.7328 22.3578 30.5229 22.4838 30.313 22.6099C30.187 22.694 30.1031 22.736 29.9771 22.82C29.8931 22.8621 29.8511 22.9041 29.7672 22.9461C29.3893 23.1983 29.0534 23.4925 28.7595 23.8287C27.1641 25.4256 26.1565 27.653 26.1565 30.1325C26.1565 30.7629 26.2405 31.3513 26.3664 31.9817C26.4084 32.1498 26.4504 32.2759 26.4924 32.444C26.6183 32.8642 26.7443 33.2845 26.9122 33.7047V33.7468C27.0802 34.083 27.2481 34.4612 27.458 34.7554H5.87786ZM39.7595 34.7974C38.542 36.0162 36.9046 36.7306 35.0573 36.7306C33.2939 36.7306 31.6565 36.0162 30.4809 34.8815C30.313 34.7134 30.145 34.5032 29.9771 34.3351C29.8511 34.209 29.7252 34.0409 29.5992 33.9149C29.4313 33.7047 29.3053 33.4526 29.1794 33.2004C29.0954 33.0323 29.0114 32.9062 28.9275 32.7381C28.8435 32.528 28.7595 32.2759 28.7176 32.0237C28.6756 31.8556 28.5916 31.6455 28.5496 31.4774C28.4656 31.0571 28.4237 30.5948 28.4237 30.1325C28.4237 28.2834 29.1794 26.6444 30.355 25.4256C31.5725 24.2069 33.2099 23.4925 35.0573 23.4925C36.9046 23.4925 38.542 24.2489 39.7595 25.4256C40.9771 26.6024 41.6908 28.2834 41.6908 30.1325C41.6908 31.9397 40.9351 33.5787 39.7595 34.7974Z" fill="#424242"/>
<path d="M38.7099 28.9558H36.1488V26.3922C36.1488 25.7619 35.645 25.2575 35.0153 25.2575C34.3855 25.2575 33.8817 25.7619 33.8817 26.3922V28.9558H31.3206C30.6908 28.9558 30.187 29.4601 30.187 30.0905C30.187 30.7209 30.6908 31.2252 31.3206 31.2252H33.8817V33.7888C33.8817 34.4192 34.3855 34.9235 35.0153 34.9235C35.645 34.9235 36.1488 34.4192 36.1488 33.7888V31.2252H38.7099C39.3397 31.2252 39.8435 30.7209 39.8435 30.0905C39.8435 29.4601 39.3397 28.9558 38.7099 28.9558Z" fill="#424242"/>
</svg>
