<svg xmlns="http://www.w3.org/2000/svg" viewBox="0 0 780.79 379.05"><defs><style>.cls-1{fill:#00786d;}.cls-2{fill:#0ac41b;}</style></defs><g id="Camada_2" data-name="Camada 2"><g id="Camada_2-2" data-name="Camada 2"><path class="cls-1" d="M389.42,0c-3.45,6.51-30,52.11-30.73,58.39-3.66,32.8,42.81,71.29,65.64,98.47,98.94,106.89-35,232.07-21,221.57,133-26.62,132.32-151.29,100.29-199.29C456.6,109.8,409.49,40.34,389.42,0Z"/><path class="cls-1" d="M343.76,73.5c14.85,33.17,32.8,59.26,54.64,76.5,80.24,75.43,54,146.38-3.86,216-5.12-54.64-36.05-93.86-82.92-129.86-21.53-18.77-29.51-43.06-27.65-71.35Z"/><path class="cls-1" d="M268.54,184.71C229.33,284.36,283.71,374,381,379.05c.32-43.2-18.16-84.12-66-121.48C295.72,244.53,281.33,217,268.54,184.71Z"/><path class="cls-2" d="M675.2,75.32c-2.76,5.21-24,41.69-24.59,46.71-2.92,26.24,34.25,57,52.52,78.78,79.15,85.51-28,185.66-16.8,177.26,106.41-21.3,105.85-121,80.22-159.43C729,163.16,691.25,107.6,675.2,75.32Z"/><path class="cls-2" d="M638.67,134.12c11.88,26.54,26.24,47.41,43.71,61.2,64.19,60.35,43.19,117.11-3.08,172.8C675.2,324.41,650.45,293,613,264.24c-17.22-15-23.6-34.46-22.11-57.09Z"/><path class="cls-2" d="M578.5,223.1c-31.37,79.71,12.13,151.45,90,155.46.25-34.56-14.53-67.29-52.8-97.18C600.24,271,588.73,248.91,578.5,223.1Z"/><path class="cls-2" d="M107,68.13c-2.75,5.21-24,41.69-24.58,46.71-2.93,26.24,34.25,57,52.51,78.78,79.16,85.51-28,185.66-16.8,177.25,106.41-21.29,105.86-121,80.23-159.42C160.71,156,123,100.41,107,68.13Z"/><path class="cls-2" d="M70.44,126.93c11.88,26.53,26.24,47.41,43.71,61.2,64.19,60.34,43.19,117.1-3.08,172.8C107,317.22,82.22,285.85,44.72,257.05,27.5,242,21.12,222.59,22.61,200Z"/><path class="cls-2" d="M10.27,215.9c-31.38,79.72,12.13,151.46,90,155.47.25-34.56-14.53-67.29-52.8-97.18C32,263.76,20.49,241.71,10.27,215.9Z"/></g></g></svg>