<svg width="41" height="31" viewBox="0 0 41 31" fill="none" xmlns="http://www.w3.org/2000/svg">
<path d="M39.2917 13.9502H5.21128L18.2612 2.67254C18.9446 2.082 18.9711 1.10086 18.3202 0.480869C17.6702 -0.138348 16.5888 -0.163148 15.9046 0.427395L1.00109 13.3077C0.356196 13.8936 8.4483e-06 14.6717 8.4483e-06 15.5002C8.4483e-06 16.3279 0.356196 17.1067 1.03099 17.7182L15.9054 30.5722C16.236 30.8582 16.6597 31 17.0833 31C17.5343 31 17.9853 30.8388 18.321 30.5187C18.9719 29.8987 18.9454 28.9184 18.2621 28.3278L5.15747 17.0502H39.2917C40.2347 17.0502 41 16.3558 41 15.5002C41 14.6446 40.2347 13.9502 39.2917 13.9502Z" fill="#424242"/>
</svg>
